<mxfile host="app.diagrams.net" agent="Mozilla/5.0 (Windows NT 10.0; Win64; x64) AppleWebKit/537.36 (KHTML, like Gecko) Chrome/131.0.0.0 Safari/537.36" version="24.9.1">
  <diagram name="第 1 页" id="9E8rJnDWjaIL0gWoumOO">
    <mxGraphModel dx="819" dy="422" grid="1" gridSize="10" guides="1" tooltips="1" connect="1" arrows="1" fold="1" page="1" pageScale="1" pageWidth="827" pageHeight="2000" math="0" shadow="0">
      <root>
        <mxCell id="0" />
        <mxCell id="1" parent="0" />
        <mxCell id="UneD9aS1JqehnLIWqehY-1" value="" style="shape=link;html=1;rounded=0;" edge="1" parent="1">
          <mxGeometry width="100" relative="1" as="geometry">
            <mxPoint x="90" y="350" as="sourcePoint" />
            <mxPoint x="190" y="350" as="targetPoint" />
          </mxGeometry>
        </mxCell>
        <mxCell id="UneD9aS1JqehnLIWqehY-2" value="常电线" style="text;html=1;align=center;verticalAlign=middle;whiteSpace=wrap;rounded=0;" vertex="1" parent="1">
          <mxGeometry x="70" y="320" width="60" height="30" as="geometry" />
        </mxCell>
        <mxCell id="UneD9aS1JqehnLIWqehY-3" value="NMC308-P1" style="rounded=0;whiteSpace=wrap;html=1;" vertex="1" parent="1">
          <mxGeometry x="150" y="200" width="400" height="60" as="geometry" />
        </mxCell>
        <mxCell id="UneD9aS1JqehnLIWqehY-4" value="" style="endArrow=classic;html=1;rounded=0;exitX=0.1;exitY=1;exitDx=0;exitDy=0;exitPerimeter=0;" edge="1" parent="1" source="UneD9aS1JqehnLIWqehY-3">
          <mxGeometry width="50" height="50" relative="1" as="geometry">
            <mxPoint x="190" y="263" as="sourcePoint" />
            <mxPoint x="190" y="350" as="targetPoint" />
          </mxGeometry>
        </mxCell>
        <mxCell id="UneD9aS1JqehnLIWqehY-5" value="P1-13-COM21" style="edgeLabel;html=1;align=center;verticalAlign=middle;resizable=0;points=[];" vertex="1" connectable="0" parent="UneD9aS1JqehnLIWqehY-4">
          <mxGeometry x="-0.219" y="1" relative="1" as="geometry">
            <mxPoint as="offset" />
          </mxGeometry>
        </mxCell>
        <mxCell id="UneD9aS1JqehnLIWqehY-6" value="" style="shape=link;html=1;rounded=0;" edge="1" parent="1">
          <mxGeometry width="100" relative="1" as="geometry">
            <mxPoint x="278" y="350" as="sourcePoint" />
            <mxPoint x="610" y="350" as="targetPoint" />
          </mxGeometry>
        </mxCell>
        <mxCell id="UneD9aS1JqehnLIWqehY-7" value="" style="endArrow=classic;html=1;rounded=0;exitX=0.1;exitY=1;exitDx=0;exitDy=0;exitPerimeter=0;" edge="1" parent="1">
          <mxGeometry width="50" height="50" relative="1" as="geometry">
            <mxPoint x="280" y="260" as="sourcePoint" />
            <mxPoint x="280" y="350" as="targetPoint" />
          </mxGeometry>
        </mxCell>
        <mxCell id="UneD9aS1JqehnLIWqehY-8" value="P1-1-NC21" style="edgeLabel;html=1;align=center;verticalAlign=middle;resizable=0;points=[];" vertex="1" connectable="0" parent="UneD9aS1JqehnLIWqehY-7">
          <mxGeometry x="-0.219" y="1" relative="1" as="geometry">
            <mxPoint as="offset" />
          </mxGeometry>
        </mxCell>
        <mxCell id="UneD9aS1JqehnLIWqehY-9" value="" style="endArrow=classic;html=1;rounded=0;exitX=0.1;exitY=1;exitDx=0;exitDy=0;exitPerimeter=0;" edge="1" parent="1">
          <mxGeometry width="50" height="50" relative="1" as="geometry">
            <mxPoint x="349" y="260" as="sourcePoint" />
            <mxPoint x="349" y="350" as="targetPoint" />
          </mxGeometry>
        </mxCell>
        <mxCell id="UneD9aS1JqehnLIWqehY-10" value="P1-2-COM22" style="edgeLabel;html=1;align=center;verticalAlign=middle;resizable=0;points=[];" vertex="1" connectable="0" parent="UneD9aS1JqehnLIWqehY-9">
          <mxGeometry x="-0.219" y="1" relative="1" as="geometry">
            <mxPoint as="offset" />
          </mxGeometry>
        </mxCell>
        <mxCell id="UneD9aS1JqehnLIWqehY-11" value="" style="endArrow=classic;html=1;rounded=0;exitX=0.1;exitY=1;exitDx=0;exitDy=0;exitPerimeter=0;" edge="1" parent="1">
          <mxGeometry width="50" height="50" relative="1" as="geometry">
            <mxPoint x="427" y="261" as="sourcePoint" />
            <mxPoint x="427" y="400" as="targetPoint" />
          </mxGeometry>
        </mxCell>
        <mxCell id="UneD9aS1JqehnLIWqehY-12" value="P1-4-COM23" style="edgeLabel;html=1;align=center;verticalAlign=middle;resizable=0;points=[];" vertex="1" connectable="0" parent="UneD9aS1JqehnLIWqehY-11">
          <mxGeometry x="-0.219" y="1" relative="1" as="geometry">
            <mxPoint as="offset" />
          </mxGeometry>
        </mxCell>
        <mxCell id="UneD9aS1JqehnLIWqehY-13" value="" style="endArrow=classic;html=1;rounded=0;exitX=0.1;exitY=1;exitDx=0;exitDy=0;exitPerimeter=0;" edge="1" parent="1">
          <mxGeometry width="50" height="50" relative="1" as="geometry">
            <mxPoint x="510" y="260" as="sourcePoint" />
            <mxPoint x="510" y="450" as="targetPoint" />
          </mxGeometry>
        </mxCell>
        <mxCell id="UneD9aS1JqehnLIWqehY-14" value="P1-9-COM24" style="edgeLabel;html=1;align=center;verticalAlign=middle;resizable=0;points=[];" vertex="1" connectable="0" parent="UneD9aS1JqehnLIWqehY-13">
          <mxGeometry x="-0.219" y="1" relative="1" as="geometry">
            <mxPoint as="offset" />
          </mxGeometry>
        </mxCell>
        <mxCell id="UneD9aS1JqehnLIWqehY-15" value="" style="shape=link;html=1;rounded=0;" edge="1" parent="1">
          <mxGeometry width="100" relative="1" as="geometry">
            <mxPoint x="90" y="397" as="sourcePoint" />
            <mxPoint x="610" y="397" as="targetPoint" />
          </mxGeometry>
        </mxCell>
        <mxCell id="UneD9aS1JqehnLIWqehY-16" value="" style="shape=link;html=1;rounded=0;" edge="1" parent="1">
          <mxGeometry width="100" relative="1" as="geometry">
            <mxPoint x="90" y="444" as="sourcePoint" />
            <mxPoint x="610" y="444" as="targetPoint" />
          </mxGeometry>
        </mxCell>
        <mxCell id="UneD9aS1JqehnLIWqehY-17" value="上电线" style="text;html=1;align=center;verticalAlign=middle;whiteSpace=wrap;rounded=0;" vertex="1" parent="1">
          <mxGeometry x="70" y="370" width="60" height="30" as="geometry" />
        </mxCell>
        <mxCell id="UneD9aS1JqehnLIWqehY-18" value="点火线" style="text;html=1;align=center;verticalAlign=middle;whiteSpace=wrap;rounded=0;" vertex="1" parent="1">
          <mxGeometry x="71" y="416" width="60" height="30" as="geometry" />
        </mxCell>
        <mxCell id="UneD9aS1JqehnLIWqehY-19" value="点火" style="text;html=1;align=center;verticalAlign=middle;whiteSpace=wrap;rounded=0;" vertex="1" parent="1">
          <mxGeometry x="40" y="220" width="60" height="30" as="geometry" />
        </mxCell>
        <mxCell id="UneD9aS1JqehnLIWqehY-20" value="离合触点开关操作侧" style="rounded=0;whiteSpace=wrap;html=1;" vertex="1" parent="1">
          <mxGeometry x="100" y="610" width="30" height="120" as="geometry" />
        </mxCell>
        <mxCell id="UneD9aS1JqehnLIWqehY-21" value="" style="endArrow=classic;html=1;rounded=0;entryX=1.114;entryY=0.217;entryDx=0;entryDy=0;entryPerimeter=0;" edge="1" parent="1">
          <mxGeometry width="50" height="50" relative="1" as="geometry">
            <mxPoint x="370" y="624" as="sourcePoint" />
            <mxPoint x="130.41999999999996" y="623.89" as="targetPoint" />
            <Array as="points">
              <mxPoint x="176" y="624" />
            </Array>
          </mxGeometry>
        </mxCell>
        <mxCell id="UneD9aS1JqehnLIWqehY-24" value="1" style="edgeLabel;html=1;align=center;verticalAlign=middle;resizable=0;points=[];" vertex="1" connectable="0" parent="UneD9aS1JqehnLIWqehY-21">
          <mxGeometry x="0.1972" relative="1" as="geometry">
            <mxPoint x="4" as="offset" />
          </mxGeometry>
        </mxCell>
        <mxCell id="UneD9aS1JqehnLIWqehY-22" value="" style="endArrow=classic;html=1;rounded=0;entryX=1.114;entryY=0.217;entryDx=0;entryDy=0;entryPerimeter=0;" edge="1" parent="1">
          <mxGeometry width="50" height="50" relative="1" as="geometry">
            <mxPoint x="370" y="665" as="sourcePoint" />
            <mxPoint x="130" y="665" as="targetPoint" />
          </mxGeometry>
        </mxCell>
        <mxCell id="UneD9aS1JqehnLIWqehY-25" value="2" style="edgeLabel;html=1;align=center;verticalAlign=middle;resizable=0;points=[];" vertex="1" connectable="0" parent="UneD9aS1JqehnLIWqehY-22">
          <mxGeometry x="0.1389" y="-3" relative="1" as="geometry">
            <mxPoint as="offset" />
          </mxGeometry>
        </mxCell>
        <mxCell id="UneD9aS1JqehnLIWqehY-23" value="" style="endArrow=classic;html=1;rounded=0;entryX=1.114;entryY=0.217;entryDx=0;entryDy=0;entryPerimeter=0;" edge="1" parent="1">
          <mxGeometry width="50" height="50" relative="1" as="geometry">
            <mxPoint x="250" y="706" as="sourcePoint" />
            <mxPoint x="130" y="706" as="targetPoint" />
          </mxGeometry>
        </mxCell>
        <mxCell id="UneD9aS1JqehnLIWqehY-26" value="3" style="edgeLabel;html=1;align=center;verticalAlign=middle;resizable=0;points=[];" vertex="1" connectable="0" parent="UneD9aS1JqehnLIWqehY-23">
          <mxGeometry x="0.1076" y="-2" relative="1" as="geometry">
            <mxPoint x="-1" as="offset" />
          </mxGeometry>
        </mxCell>
        <mxCell id="UneD9aS1JqehnLIWqehY-27" value="NMC308-P3" style="rounded=0;whiteSpace=wrap;html=1;" vertex="1" parent="1">
          <mxGeometry x="100" y="550" width="270" height="30" as="geometry" />
        </mxCell>
        <mxCell id="UneD9aS1JqehnLIWqehY-28" value="" style="endArrow=classic;html=1;rounded=0;exitX=0.25;exitY=1;exitDx=0;exitDy=0;" edge="1" parent="1">
          <mxGeometry width="50" height="50" relative="1" as="geometry">
            <mxPoint x="165.00000000000006" y="578" as="sourcePoint" />
            <mxPoint x="165" y="668" as="targetPoint" />
          </mxGeometry>
        </mxCell>
        <mxCell id="UneD9aS1JqehnLIWqehY-29" value="P3-33-COM72" style="edgeLabel;html=1;align=center;verticalAlign=middle;resizable=0;points=[];" vertex="1" connectable="0" parent="UneD9aS1JqehnLIWqehY-28">
          <mxGeometry x="-0.5175" y="-1" relative="1" as="geometry">
            <mxPoint as="offset" />
          </mxGeometry>
        </mxCell>
        <mxCell id="UneD9aS1JqehnLIWqehY-30" value="" style="endArrow=classic;html=1;rounded=0;exitX=0.25;exitY=1;exitDx=0;exitDy=0;" edge="1" parent="1">
          <mxGeometry width="50" height="50" relative="1" as="geometry">
            <mxPoint x="250.00000000000006" y="580" as="sourcePoint" />
            <mxPoint x="250" y="710" as="targetPoint" />
          </mxGeometry>
        </mxCell>
        <mxCell id="UneD9aS1JqehnLIWqehY-31" value="P3-34-NC71" style="edgeLabel;html=1;align=center;verticalAlign=middle;resizable=0;points=[];" vertex="1" connectable="0" parent="UneD9aS1JqehnLIWqehY-30">
          <mxGeometry x="-0.5175" y="-1" relative="1" as="geometry">
            <mxPoint y="-11" as="offset" />
          </mxGeometry>
        </mxCell>
        <mxCell id="UneD9aS1JqehnLIWqehY-32" value="" style="endArrow=classic;html=1;rounded=0;entryX=1.114;entryY=0.217;entryDx=0;entryDy=0;entryPerimeter=0;" edge="1" parent="1">
          <mxGeometry width="50" height="50" relative="1" as="geometry">
            <mxPoint x="371.5" y="706" as="sourcePoint" />
            <mxPoint x="328.5" y="706" as="targetPoint" />
          </mxGeometry>
        </mxCell>
        <mxCell id="UneD9aS1JqehnLIWqehY-34" value="3" style="edgeLabel;html=1;align=center;verticalAlign=middle;resizable=0;points=[];" vertex="1" connectable="0" parent="UneD9aS1JqehnLIWqehY-32">
          <mxGeometry x="0.114" y="-1" relative="1" as="geometry">
            <mxPoint as="offset" />
          </mxGeometry>
        </mxCell>
      </root>
    </mxGraphModel>
  </diagram>
</mxfile>
